// Untitled
// David William Hearn
// Created with StaffPad Editor

<global>
ampeg_decay=0
amp_veltrack=0
ampeg_sustain=100
ampeg_attack=0
ampeg_release=0.45


<group>
group_label=PP
xf_cccurve=gain
xfin_hicc1=64
xfin_locc1=0
xfout_hicc1=127
xfout_locc1=64


<region>
sample=6Horns_rip_PP_G#4.opus
hikey=g#4
lokey=g4
pitch_keycenter=g#4
tune=0
volume=0

<region>
sample=6Horns_rip_PP_G#3.opus
hikey=g#3
lokey=g3
pitch_keycenter=g#3
tune=0
volume=0

<region>
sample=6Horns_rip_PP_G#2.opus
hikey=g#2
lokey=g2
pitch_keycenter=g#2
tune=0
volume=0

<region>
sample=6Horns_rip_PP_F2.opus
hivel=127
key=F2
lovel=0
tune=0
volume=0

<region>
sample=6Horns_rip_PP_F#4.opus
hikey=f#4
lokey=f4
pitch_keycenter=f#4
tune=0
volume=0

<region>
sample=6Horns_rip_PP_F#3.opus
hikey=f#3
lokey=f3
pitch_keycenter=f#3
tune=0
volume=0

<region>
sample=6Horns_rip_PP_F#2.opus
key=f#2
tune=0
volume=0

<region>
sample=6Horns_rip_PP_E5.opus
hikey=e5
lokey=d#5
pitch_keycenter=E5
tune=0
volume=0

<region>
sample=6Horns_rip_PP_E4.opus
hikey=e4
lokey=d#4
pitch_keycenter=e4
tune=0
volume=0

<region>
sample=6Horns_rip_PP_E3.opus
hikey=e3
lokey=d#3
pitch_keycenter=e3
tune=0
volume=0

<region>
sample=6Horns_rip_PP_D5.opus
hikey=d5
lokey=c#5
pitch_keycenter=d5
tune=0
volume=0

<region>
sample=6Horns_rip_PP_D4.opus
hikey=d4
lokey=c#4
pitch_keycenter=d4
tune=0
volume=0

<region>
sample=6Horns_rip_PP_D3.opus
hikey=d3
lokey=c#3
pitch_keycenter=d3
tune=0
volume=0

<region>
sample=6Horns_rip_PP_C5.opus
hikey=c5
lokey=b4
pitch_keycenter=c5
tune=0
volume=0

<region>
sample=6Horns_rip_PP_C4.opus
hikey=c4
lokey=b3
pitch_keycenter=c4
tune=0
volume=0

<region>
sample=6Horns_rip_PP_C3.opus
hikey=c3
lokey=b2
pitch_keycenter=c3
tune=0
volume=0

<region>
sample=6Horns_rip_PP_A#4.opus
hikey=a#4
lokey=a4
pitch_keycenter=a#4
tune=0
volume=0

<region>
sample=6Horns_rip_PP_A#3.opus
hikey=a#3
lokey=a3
pitch_keycenter=a#3
tune=0
volume=0

<region>
sample=6Horns_rip_PP_A#2.opus
hikey=a#2
lokey=a2
pitch_keycenter=a#2
tune=0
volume=0



<group>
group_label=FF
xf_cccurve=gain
xfin_hicc1=127
xfin_locc1=64
xfout_hicc1=127
xfout_locc1=127


<region>
sample=6Horns_rip_FF_G#4.opus
hikey=g#4
lokey=g4
pitch_keycenter=g#4
tune=0
volume=0

<region>
sample=6Horns_rip_FF_G#3.opus
hikey=g#3
lokey=g3
pitch_keycenter=g#3
tune=0
volume=0

<region>
sample=6Horns_rip_FF_G#2.opus
hikey=g#2
lokey=g2
pitch_keycenter=g#2
tune=0
volume=0

<region>
sample=6Horns_rip_FF_F2.opus
hivel=127
key=F2
lovel=0
tune=0
volume=0

<region>
sample=6Horns_rip_FF_F#4.opus
hikey=f#4
lokey=f4
pitch_keycenter=f#4
tune=0
volume=0

<region>
sample=6Horns_rip_FF_F#3.opus
hikey=f#3
lokey=f3
pitch_keycenter=f#3
tune=0
volume=0

<region>
sample=6Horns_rip_FF_F#2.opus
key=f#2
tune=0
volume=0

<region>
sample=6Horns_rip_FF_E5.opus
hikey=e5
lokey=d#5
pitch_keycenter=E5
tune=0
volume=0

<region>
sample=6Horns_rip_FF_E4.opus
hikey=e4
lokey=d#4
pitch_keycenter=e4
tune=0
volume=0

<region>
sample=6Horns_rip_FF_E3.opus
hikey=e3
lokey=d#3
pitch_keycenter=e3
tune=0
volume=0

<region>
sample=6Horns_rip_FF_D5.opus
hikey=d5
lokey=c#5
pitch_keycenter=d5
tune=0
volume=0

<region>
sample=6Horns_rip_FF_D4.opus
hikey=d4
lokey=c#4
pitch_keycenter=d4
tune=0
volume=0

<region>
sample=6Horns_rip_FF_D3.opus
hikey=d3
lokey=c#3
pitch_keycenter=d3
tune=0
volume=0

<region>
sample=6Horns_rip_FF_C5.opus
hikey=c5
lokey=b4
pitch_keycenter=c5
tune=0
volume=0

<region>
sample=6Horns_rip_FF_C4.opus
hikey=c4
lokey=b3
pitch_keycenter=c4
tune=0
volume=0

<region>
sample=6Horns_rip_FF_C3.opus
hikey=c3
lokey=b2
pitch_keycenter=c3
tune=0
volume=0

<region>
sample=6Horns_rip_FF_A#4.opus
hikey=a#4
lokey=a4
pitch_keycenter=a#4
tune=0
volume=0

<region>
sample=6Horns_rip_FF_A#3.opus
hikey=a#3
lokey=a3
pitch_keycenter=a#3
tune=0
volume=0

<region>
sample=6Horns_rip_FF_A#2.opus
hikey=a#2
lokey=a2
pitch_keycenter=a#2
tune=0
volume=0

